<?xml version="1.0" encoding="utf-8"?>
<!-- Generator: Adobe Illustrator 27.5.0, SVG Export Plug-In . SVG Version: 6.00 Build 0)  -->
<svg version="1.1" xmlns="http://www.w3.org/2000/svg" xmlns:xlink="http://www.w3.org/1999/xlink" x="0px" y="0px"
	 viewBox="0 0 500 500" style="enable-background:new 0 0 500 500;" xml:space="preserve">
<g id="background">
	<linearGradient id="SVGID_1_" gradientUnits="userSpaceOnUse" x1="252.1077" y1="-91.4153" x2="250.1075" y2="232.5828">
		<stop  offset="0.051" style="stop-color:#99E2FF"/>
		<stop  offset="1" style="stop-color:#D3EDF8"/>
	</linearGradient>
	<rect style="fill:url(#SVGID_1_);" width="500" height="500"/>
</g>
<g id="objects">
	<g>
		<defs>
			<rect id="SVGID_00000067939088733963898130000008336750326702773431_" width="500" height="500"/>
		</defs>
		<clipPath id="SVGID_00000156586715674563344290000015835764175626564781_">
			<use xlink:href="#SVGID_00000067939088733963898130000008336750326702773431_"  style="overflow:visible;"/>
		</clipPath>
		<g style="clip-path:url(#SVGID_00000156586715674563344290000015835764175626564781_);">
			<g>
				<path style="fill:#FFFFFF;" d="M-53.167,282.767c-4.186-35.582,60.159-52.068,83-55.167c52.574-7.132,117.985,39.042,58,82.667
					c18.484-8.215,57-15.167,29,11c6.816-2.386,42.538-12.055,29.5,7c64.501-10.833,68.626,18.674,49,20.5
					c-62.043,17.079-97.507,11.063-253,3.5"/>
			</g>
			<g>
				<path style="fill:#FFFFFF;" d="M354.833,340.267c-10.112-5.516-16.261-20.083-2-25c17.82-6.619,36.879,0.476,54.5,4
					c-2.93-5.37-8.002-15.999,1-19c8.103-2.701,14.064,7.318,20.5,10c-2.731-18.343,24.563-4.439,28-16.5
					c5.007-17.574,3.91-28.247,17.567-41.138c29.784-28.112,56.26-11.656,57.558,25.325c0.46,13.118-0.763,26.27-2.49,39.261
					c-2.554,19.193-1.822,24.052-21.635,24.052c-54.441,3.024-109.521,6.092-164,2.5c1.167,0,2.333,0,3.5,0L354.833,340.267z"/>
			</g>
		</g>
		<g style="clip-path:url(#SVGID_00000156586715674563344290000015835764175626564781_);">
			<path style="fill:#43D8E8;" d="M-26.667,347.35c73.424-12.663,177.407,5.92,261.787,0.135
				c84.379-5.785,214.357-4.171,275.368-5.247c14.242,73.726-1.886,137.225-1.886,137.225l-525.333,9.955L-26.667,347.35z"/>
			<path style="fill:#31BDCC;" d="M150.832,406.98c-46.667-0.541-95.333-5.411-141.333,0.54
				c-10.265,1.042-20.992,2.462-31.664,4.073l3.422,48.043c3.21,1.105,6.404,2.149,9.575,3.076
				c32.666,8.657,65.333,17.855,99.333,21.644c5.332,0.517,10.674,0.899,16.023,1.175l82.611-1.574
				c12.041-0.662,24.061-1.33,36.033-1.765c48-1.082,96-4.87,144.667-5.952c38-1.082,76-1.623,113.333-5.411
				c8.988-0.755,18.697-1.511,27.921-3.299c2.897-15.779,8.635-37.564,6.08-76.65c-53.999,3.724-98.021,11.352-152.5,17.045
				C296.333,414.959,219.498,407.521,150.832,406.98z"/>
			<path style="fill:#56ECFC;" d="M510.488,338.344c-61.011,1.07-190.989-0.535-275.368,5.221
				c-84.38,5.755-188.863-16.331-262.287-3.732l2.631,27.833c8.012-1.232,16.024-2.374,24.036-3.088c36-3.747,72-7.494,108-6.425
				c32.667,0.536,64.666,6.425,96.666,9.102c49.334,3.747,100.001,4.284,150.001,4.284c53.125,0,107.365-0.462,160.679-4.651
				C513.915,358.24,512.507,348.742,510.488,338.344z"/>
			<path style="fill:#B5F8FF;" d="M-22.833,419.946c23.333-5.865,72.333-0.602,113.167,8.767s59.207,2.019,73.54-0.981
				c14.333-3,24.368,15.303,80.73-2.001c49.76-15.276,89.567-14,131.223-10.171s131.246-6.652,150.008-8.479
				c6.211,4.063-6.333,15.666-6.333,15.666s-275.001,25-307.667,30.667C179.166,459.081,4.833,436.415-12.5,437.081
				C-29.833,437.747-22.833,419.946-22.833,419.946z"/>
		</g>
		<path style="clip-path:url(#SVGID_00000156586715674563344290000015835764175626564781_);fill:#FBC167;" d="M-36.667,426.414
			c41-11,114.5,14.316,163,18.408s119.834-19.074,165.834-24.408c63.426-7.354,184.598,17.5,239.882-11
			c-0.216,85-3.216,102.5-3.216,102.5h-560L-36.667,426.414z"/>
		<g style="clip-path:url(#SVGID_00000156586715674563344290000015835764175626564781_);">
			<path style="fill:#8C5532;" d="M110.006,81.153C29.375,192.735,17.897,340.55,27.261,441.964
				c-3.188,7.074-29.433-2.482-45.583,4.858c-1.775-55.917,17.854-288.37,119.343-378.605
				C105.408,68.66,110.006,81.153,110.006,81.153z"/>
			<path style="opacity:0.3;fill:#543018;" d="M110.006,81.153c0,0-4.599-12.493-8.985-12.937c-0.615,0.547-1.224,1.104-1.833,1.66
				c1.402,2.792,2.318,5.276,2.318,5.276C20.875,186.735,9.397,334.55,18.761,435.964c-2.678,5.942-21.621,0.155-37.187,2.499
				c-0.01,3.105,0.026,5.906,0.104,8.359c16.15-7.34,42.394,2.216,45.583-4.858C17.897,340.55,29.375,192.735,110.006,81.153z"/>
			<g>
				<g>
					<path style="fill:#74A82F;" d="M98.229-43.082L79.646-21.758l23.679-14.574c1.811,2.61,3.463,5.265,4.984,7.946L84.391-8.49
						l28.221-11.366c15.094,33.746,9.532,71.471-7.355,101.521C83.605,39.038,54.654-47.905,56.673-76.241
						C74.517-66.732,88.152-55.429,98.229-43.082z"/>
					<path style="fill:#8CC63F;" d="M106.689,78.959c-0.479,0.9-0.934,1.816-1.433,2.705C83.605,39.038,54.654-47.905,56.673-76.241
						C63.146-64.709,74.362-37.27,84.539-8.063l0.104,0.3C96.489,26.268,106.867,62.582,106.689,78.959z"/>
				</g>
				<path style="fill:#74A82F;" d="M145.542,18.248c-4.188-4.592-9.676-7.991-13.816-10.149c3.771-4.973,7.819-9.426,12.083-13.371
					c4.242,2.863,10.033,6.85,17.9,12.412c-0.613-2.512-3.702-12.533-9.084-19.659c25.609-18.569,56.439-21.248,79.563-11.3
					c-25.679,13.779-60.264,84.216-126.9,105.815c2.827-28.946,11.262-51.667,22.852-68.876
					C132.301,14.052,138.12,15.614,145.542,18.248z"/>
				<path style="fill:#8CC63F;" d="M128.14,13.12c4.162,0.932,9.98,2.494,17.403,5.128c-4.188-4.592-9.676-7.991-13.816-10.149
					c3.771-4.973,7.819-9.426,12.083-13.371c4.242,2.863,10.033,6.85,17.9,12.412c-0.613-2.512-3.702-12.533-9.084-19.659
					c25.609-18.569,56.439-21.248,79.563-11.3c-22.355-2.309-73.594,14.761-126.9,105.815C108.115,53.05,116.55,30.329,128.14,13.12
					z"/>
				<path style="fill:#74A82F;" d="M31.18-14.743c12.413,1.966,28.8,10.133,43.065,23.277c-2.952,6.289-6.705,14.494-11.26,24.873
					c5.459-7.021,12.437-11.232,19.182-14.074C95.229,34.826,105.667,57.167,106.5,81C91.812,89.351,47.104,75.106,5.349,51.675
					c6.398-12.742,18.991-29.156,25.839-34.217C12.972,20.026-3.141,40.82-6.138,44.895c-1.883-1.177-3.753-2.382-5.612-3.608
					c4.191-6.742,10.07-15.91,12.957-18.047c-7.626,1.506-16.849,7.219-22.69,11.297C-38.827,21.94-54.365,7.291-65.312-8.829
					C-44.218-0.331-15.001-22.044,31.18-14.743z"/>
				<path style="fill:#8CC63F;" d="M104.11,78.778c-16.186,6.675-58.562-4.533-98.768-27.091
					c6.395-12.741,18.997-29.169,25.845-34.229C12.985,20.026-3.109,40.78-6.13,44.882c-1.88-1.178-3.751-2.385-5.614-3.605
					C-7.553,34.53-1.678,25.369,1.207,23.239c-7.629,1.505-16.855,7.226-22.694,11.301C-38.832,21.947-54.365,7.291-65.312-8.829
					C-33.902,27.833,40.839-25.94,104.11,78.778z"/>
				<path style="fill:#8CC63F;" d="M186.171,56.743c2.146-4.268,8.479-11.824,13.554-17.565c3.371,0.284,6.746,0.706,10.115,1.271
					c-4.572,5.832-11.193,14.989-18.072,26.924c4.72-4.494,19.98-17.104,29.09-24.579c33.405,8.715,64.749,31.597,80.882,70.693
					c-25.903-12.053-57.104-18.472-87.201-22.189c-4.751-9.96-10.834-20.905-15.947-23.488c1.887,7.613,2.688,15.257,2.926,22.026
					c-42.712-4.308-81.188-3.86-96.229-7.339c15.216-28.826,49.338-44.27,85.623-43.761
					C189.194,43.424,187.465,49.393,186.171,56.743z"/>
				<path style="fill:#74A82F;" d="M105.288,82.496c0.154-0.291,0.324-0.575,0.481-0.864c97.995-31.77,176.396-4.778,195.239,31.455
					l0.006,0.076c-25.762-11.84-56.654-18.184-86.476-21.866c-4.751-9.96-10.834-20.905-15.947-23.488
					c1.887,7.613,2.688,15.257,2.926,22.026C158.806,85.527,120.329,85.975,105.288,82.496z"/>
				<path style="fill:#74A82F;" d="M-0.42,101.628c-5.371-2.409-12.033-8.078-16.071-11.785c1.813-4.435,3.682-8.533,5.605-12.112
					c1.185-2.203,9.136-13.23,21.529-20.39c28.267-14.776,72.202-10.393,95.804,24.735C30.917,104.561,4.838,147.083-45.36,198.965
					c1.635-4.229,11.467-61.13,25.458-100.189C-15.103,99.973-8.757,101.018-0.42,101.628z"/>
				<path style="fill:#8CC63F;" d="M105.813,81.176c0.21,0.306,0.43,0.59,0.635,0.9C30.917,104.561,4.838,147.083-45.36,198.965
					C2.561,64.802,67.519,62.362,105.813,81.176z"/>
				<path style="fill:#74A82F;" d="M182.897,135.366c-3.937,4.05-9.182,10.194-16.034,19.483
					c4.826-3.979,13.278-8.168,19.921-11.139c1.353,3.476,2.44,7.049,3.287,10.725c-5.329,3.138-12.067,7.722-17.969,13.648
					c0,0,10.61-2.898,19.563-4.592c2.533,20.972-1.802,45.074-10.165,72.88c-13.245-25.386-66.504-99.139-76.584-155.473
					C146.705,95.482,170.926,113.302,182.897,135.366z"/>
				<path style="fill:#8CC63F;" d="M181.445,236.273c-13.325-25.476-66.449-99.098-76.523-155.355
					C162.453,116.105,187.062,199.038,181.445,236.273z"/>
			</g>
			<path style="fill:#B56E40;" d="M-16.938,402.627c0.047-0.676,0.096-1.357,0.146-2.041c13.235,0.801,29.951-2.708,41.41-7.322
				c0.013,0.734,0.026,1.468,0.041,2.199C13.018,400.054-3.404,403.457-16.938,402.627z M27.405,319.341
				c0.066-0.699,0.134-1.398,0.202-2.099c-9.724,0.376-24.094-0.097-33.368-5.022c-0.125,0.714-0.248,1.426-0.37,2.139
				C3.54,319.223,17.68,319.721,27.405,319.341z M34.968,264.94c-12.208-0.983-22.066-6.29-28.445-10.858
				c-0.178,0.707-0.355,1.416-0.53,2.124c6.588,4.593,16.467,9.733,28.606,10.762C34.722,266.291,34.842,265.616,34.968,264.94z
				 M-18.427,439.176c0,0.763,0.002,1.505,0.007,2.227c3.11,0.971,6.494,1.942,10.079,2.847c2.627-0.303,5.329-0.395,8.017-0.376
				C-6.91,442.538-13.102,440.842-18.427,439.176z M-11.256,347.771c-0.091,0.678-0.182,1.355-0.271,2.03
				c9.095,1.778,23.129,3.979,36.611,3.914c0.028-0.678,0.059-1.358,0.088-2.039C11.78,351.756-2.233,349.543-11.256,347.771z
				 M53.645,129.227c-0.337,0.6-0.672,1.201-1.006,1.805c6.924,4.474,15.502,7.039,22.627,8.502
				c0.314-0.648,0.631-1.297,0.949-1.943C69.129,136.164,60.469,133.643,53.645,129.227z M71.695,100.979
				c5.629,4.273,12.232,7.288,19.507,8.901c0.367-0.619,0.726-1.243,1.096-1.859c-7.254-1.514-13.825-4.46-19.393-8.692
				C72.5,99.875,72.097,100.426,71.695,100.979z M19.092,210.137c-0.224,0.689-0.447,1.379-0.668,2.069
				c8.312,5.588,17.648,10.409,25.197,13.946c0.18-0.686,0.355-1.372,0.537-2.059C36.585,220.518,27.274,215.674,19.092,210.137z
				 M58.719,178.261c-10.144-1.477-18.86-4.293-25.373-6.945c-0.261,0.628-0.519,1.261-0.777,1.892
				c6.55,2.668,15.272,5.491,25.423,7.012C58.232,179.565,58.475,178.913,58.719,178.261z"/>
		</g>
		<g style="clip-path:url(#SVGID_00000156586715674563344290000015835764175626564781_);">
			<path style="fill:#FFE8C4;" d="M431.164,423.663c19.502-5.082,24.047-9.582,37.274-28.082c0.31-0.428,0.667-0.937,1.064-1.509
				c-78.169,8.342-186.758-22.581-202.9-14.775c-3.03,1.818-4.81,7.867-3.79,14.367c0.004,0.027,0.01,0.06,0.014,0.088
				c3.859,9.365,12.222,27.433,31.342,26.494C314.5,419.247,411.662,428.745,431.164,423.663z"/>
			<path style="fill:#E8CB9D;" d="M266.602,379.297c-0.219,0.131-0.429,0.291-0.634,0.465c0.039,0.137,0.079,0.277,0.114,0.402
				c9.167-4.841,142.531,30.463,199.506,19.36c0.909-1.242,1.852-2.548,2.85-3.943c0.31-0.428,0.667-0.937,1.064-1.509
				C391.333,402.414,282.744,371.491,266.602,379.297z"/>
			<path style="fill:#FFF3E0;" d="M262.813,393.664c0.011,0.025,0.01,0.06,0.014,0.088c3.588,8.706,11.073,24.925,27.47,26.41
				c-15.786-5.75-21.703-37.048-23.693-40.865C263.572,381.115,259.646,386.164,262.813,393.664z"/>
			<path style="fill:#4D2812;" d="M253.27,373.164c-2.75,0.75-6.375-1.125-6.875-2.188s4.438-3.438,4.438-3.438
				S254.645,371.477,253.27,373.164z"/>
			<path style="fill:#D6B889;" d="M258.12,348.414c-4.037,1.375-8.982,10.867-6.725,21c3.508,5.758,5.377,17.625,5.845,22.5
				c0.343,1.375,1.257-9.234,9.362-12.617C265.458,372.914,258.12,348.414,258.12,348.414z"/>
			<path style="fill:#AB8154;" d="M235.772,355.585c0.145,0.663,4.311,0.661,5.686-1.005c1.375-1.666-3.625-2.208-3.625-2.208
				S235.462,354.506,235.772,355.585z"/>
			<path style="fill:#5E3315;" d="M248.102,308.58c-7.02,5.334-18.543,17.957-12.229,44.667c4.316,2.21,9.35,17.151,10.842,18.284
				c2.242,0.133,4.992-1.617,4.992-1.617c0.25-6.75-0.211-18.307,6.895-21.028C258.458,342.914,249.074,311.104,248.102,308.58z"/>
			<path style="fill:#4D2812;" d="M249.417,312.718c-0.764-2.537-1.114-3.616-1.315-4.138c-7.02,5.334-18.543,17.957-12.229,44.667
				c0.214,0.109,0.431,0.259,0.648,0.429C235.608,345.327,234.755,325.978,249.417,312.718z"/>
			<path style="fill:#B89A6A;" d="M483.936,376.505c-3.896,1.552-6.777,15.981-12.103,17.534
				c-52.75,15.375-195.711-19.77-205.231-14.742c-1.769-6.223-8.482-30.883-8.482-30.883
				C293.667,341.082,424.083,383.664,483.936,376.505z"/>
			<path style="fill:#A38555;" d="M480.651,380.607c1.066-2.05,2.131-3.643,3.285-4.102c-59.853,7.159-190.27-35.423-225.816-28.091
				c0,0,0.084,0.309,0.229,0.84C303.058,345.748,411.206,389.145,480.651,380.607z"/>
			<path style="fill:#6E3F1F;" d="M246.716,308.747c1.75,5,9.992,37.229,11.492,40.229c45-5,159.625,39.771,229.494,27.104
				c1.881-1.417,8.9-17.048,8.9-17.048C471.333,366.414,323.967,332.163,246.716,308.747z"/>
			<path style="fill:#5E3315;" d="M493.762,365.15c1.515-3.174,2.721-5.85,2.828-6.089c-0.063,0.008-0.131,0.016-0.195,0.023
				c-4.505,1.247-12.691,1.237-23.545,0.249c-15.724-0.903-36.703-3.624-61.017-9.293c-3.715-0.866-7.333-1.715-10.863-2.547
				c-51.926-10.693-113.058-26.26-154.254-38.747c0.31,0.886,0.826,2.636,1.47,4.915
				C275.436,322.955,441.561,372.557,493.762,365.15z"/>
			<path style="fill:#C49561;" d="M246,302.498c-4.844,0.877-25.667,37.815-10.228,53.129c0.83,0.454-7.189-27.795,13.645-45.462
				C249.454,307.079,246,302.498,246,302.498z"/>
			<path style="fill:#AB8154;" d="M247.969,311.438c-6.333,6.5-14.782,23.519-10.782,42.935c-0.333,0.667-1.414,1.254-1.414,1.254
				C233.833,349.748,232.053,324.188,247.969,311.438z"/>
			<path style="fill:#5E3315;" d="M416.199,349.081c9.509-4.542,25.509-11.054,37.634-12.173s29.25,1.588,35.125,7.047
				c5.875,5.459,10.914,12.432,7.644,13.758C493.333,359.039,430.19,361.623,416.199,349.081z"/>
			<path style="fill:#4D2812;" d="M459.572,336.661l-10.068,4.045l-29.792,10.729c8.436,4.415,24.158,6.382,39.216,7.096
				c4.221-9.015,6.726-16.647,7.602-19.826l-4.852-2.012C460.971,336.673,460.268,336.661,459.572,336.661z"/>
			<path style="fill:#4D2812;" d="M483.726,341.943c0.12-0.237,0.243-0.474,0.336-0.716c0.74-1.942-3.067-3.235-3.733-4.568
				c-2.931,4.278-13.634,7.438-32.61,5.726c0.063-0.623,0.139-1.229,0.235-1.75c-1.833,0.5-35.834,8.5-42.37,10.998
				c5.047-0.002,12.001,2.488,12.001,2.488s20.8-4.989,28.316-6.997c0.148,0.22,0.313,0.383,0.495,0.449
				c1.146,0.416,23.937,1.668,32.333-0.333c0.348-0.229,0.789-0.55,1.272-0.944c6.408,3.29,20.152,13.675,10.666,14.625
				c-2.692,0.491-27.106,1.261-30.48,1.357c0,0,28.65,1.306,35.983-1.86C503.705,357.163,499.306,348.322,483.726,341.943z"/>
			<path style="fill:#AB8154;" d="M404.917,349.702c6.536-2.498,40.537-10.498,42.37-10.998c-0.417,2.25-0.48,6.084-0.48,6.084
				c-4.853,1.166-32.603,9.333-32.603,9.333S409.964,349.7,404.917,349.702z"/>
			<path style="fill:#F2C99B;" d="M404.38,347.245c6.536-2.498,40.537-10.498,42.37-10.998c-0.417,2.25-0.48,6.084-0.48,6.084
				c-4.854,1.166-32.604,9.333-32.604,9.333S409.427,347.243,404.38,347.245z"/>
			<path style="fill:#AB8154;" d="M481.379,338.704c0,0-1.803,0.665-3.859,3.667v0.614c3.564,0.483,24.238,14.501,13.146,15.611
				c-2.692,0.491-27.106,1.261-30.48,1.357c0,0,30.44,3.376,37.773,0.21C505.862,356.751,498.859,345.121,481.379,338.704z"/>
			<path style="fill:#F2C99B;" d="M481.796,336.247c0,0-1.803,0.665-3.859,3.667v0.614c3.564,0.483,24.238,14.501,13.147,15.611
				c-2.692,0.491-27.106,1.261-30.481,1.358c0,0,32.398,3.833,39.731,0.667C508.237,354.751,499.276,342.664,481.796,336.247z"/>
			<path style="fill:#AB8154;" d="M246,302.498c20,2.375,2.333,7.209,165.833,45.334c52.329,12.202,89.256,10.755,91.437,6.895
				c-0.437,2.688-2.151,6.796-6.354,7.672c-49.646,10.349-229.55-43.597-249.499-50.817C246.167,310.748,244.48,303.499,246,302.498
				z"/>
			<path style="fill:#C69C6D;" d="M443.602,338.914c0.064,1.167,0.523,5.085,1.668,5.501c1.146,0.416,23.937,1.668,32.333-0.333
				c1.397-0.917,4.313-3.335,5.333-6.013c0.74-1.942-0.052-4.58-0.718-5.913C479.136,336.656,464.122,341.413,443.602,338.914z"/>
			<path style="fill:#AB8154;" d="M482.936,338.069c0.74-1.942-0.052-4.58-0.718-5.913c-0.497,0.725-1.309,1.457-2.398,2.164
				l-2.237,5.595c0,1.25-0.376,3.751,0.02,4.167C479,343.165,481.916,340.747,482.936,338.069z"/>
			<path style="fill:#F2C99B;" d="M443.602,338.914c1.893-2.354,12.148-10.083,31.148-9.25c11.833,0.416,7.77,6.199,2.833,10.251
				C471.396,341.051,443.872,342.081,443.602,338.914z"/>
			<path style="fill:#4D2812;" d="M247.172,325.658c0,1.792-0.702,3.244-1.569,3.244c-0.867,0-1.569-1.452-1.569-3.244
				c0-1.791,0.702-3.244,1.569-3.244C246.47,322.414,247.172,323.867,247.172,325.658z"/>
			<path style="fill:#4D2812;" d="M275.336,324.092c0,1.792-1.056,3.244-2.358,3.244c-1.304,0-2.359-1.452-2.359-3.244
				c0-1.791,1.056-3.244,2.359-3.244C274.28,320.848,275.336,322.301,275.336,324.092z"/>
			<path style="fill:#D9AB77;" d="M245.329,325.393c-3.393,0.266-4.635,5.438,0.289,14.349c6.224,11.265,14.895,6.677,20.25-1.739
				c5.355-8.416,7.965-11.171,8.298-11.755c0.355-2.166-1.028-4.089-4.923-1.188c-3.895,2.901-9.694,16.321-15.16,15.521
				c-6.828-1.001-7.143-13.244-7.143-13.244C247.602,324.997,245.329,325.393,245.329,325.393z"/>
			<g>
				<path style="fill:#F0CEAA;" d="M250.792,345.477c-0.07-0.104-0.141-0.207-0.21-0.338c-0.405-0.683-0.771-1.787-0.951-3.047
					c-0.089-0.628-0.124-1.234-0.097-1.761c0.016-0.477,0.15-1.045,0.247-1.334c0.034-0.224,0.19-0.317,0.378-0.301
					c0.209,0.019,0.378,0.065,0.436-0.014l0,0c-0.184-0.197-0.36-0.401-0.525-0.619c-0.095-0.031-0.198-0.054-0.314-0.045
					c-0.27,0.006-0.596,0.24-0.773,0.5c-0.637,0.896-0.878,2.308-0.656,3.759c0.089,0.618,0.257,1.191,0.465,1.716
					C249.444,344.611,250.114,345.102,250.792,345.477z"/>
				<path style="fill:#F0CEAA;" d="M245.767,328.698c0.31-0.282,0.588-0.493,0.79-0.547c0.2-0.077,0.368-0.074,0.419-0.165
					c-0.002-0.026-0.004-0.056-0.006-0.081c-0.037-0.084-0.16-0.202-0.406-0.267c-0.367-0.107-0.853,0.037-1.353,0.311
					c-0.975,0.583-1.927,1.813-2.445,3.363c-0.078,0.236-0.12,0.468-0.173,0.7c0.186,0.971,0.479,2.031,0.913,3.196
					c-0.003-0.938,0.064-2.17,0.51-3.48C244.46,330.402,245.145,329.31,245.767,328.698z"/>
				<path style="fill:#F0CEAA;" d="M247.141,341.416c-0.325-1.014-0.73-2.441-0.843-4.024c-0.054-0.788-0.021-1.533,0.105-2.176
					c0.133-0.64,0.342-1.207,0.589-1.501c0.145-0.135,0.229-0.235,0.327-0.248c0.103-0.033,0.209,0.008,0.291,0.068
					c0.168,0.149,0.297,0.325,0.39,0.296c0.007-0.002,0.015-0.014,0.022-0.019c-0.094-0.304-0.18-0.606-0.257-0.906
					c-0.095-0.077-0.208-0.143-0.355-0.166c-0.348-0.098-0.737,0.08-1.026,0.268c-1.118,0.942-1.517,2.678-1.401,4.475
					c0.037,0.522,0.122,1.011,0.227,1.479c0.137,0.261,0.261,0.514,0.408,0.78c0.623,1.128,1.272,2.091,1.939,2.913
					C247.464,342.357,247.308,341.944,247.141,341.416z"/>
				<path style="fill:#F0CEAA;" d="M256.9,345.872c-0.857-0.013-1.992-0.466-2.91-1.452c-0.921-0.965-1.386-2.173-1.267-2.909
					c0.07-0.58,0.449-0.905,0.576-1.108c-0.164-0.049-0.326-0.101-0.481-0.162c-0.002,0-0.004,0-0.006,0.001
					c-0.3,0.097-0.745,0.414-0.981,1.001c-0.483,1.198,0.052,2.873,1.201,4.083c0.436,0.479,0.953,0.847,1.489,1.104
					c0.958-0.017,1.916-0.214,2.86-0.574C257.23,345.867,257.075,345.877,256.9,345.872z"/>
				<path style="fill:#F0CEAA;" d="M263.2,338.535c-1.347,0.294-2.545,0.186-3.272-0.203c-0.382-0.204-0.562-0.33-0.625-0.483
					c-0.159,0.167-0.318,0.327-0.478,0.482c0.019,0.054,0.025,0.107,0.053,0.159c0.128,0.233,0.314,0.423,0.516,0.606
					c0.418,0.354,1.065,0.693,1.778,0.801c0.719,0.127,1.511,0.092,2.293-0.07c0.541-0.12,1.025-0.285,1.483-0.465
					c0.315-0.441,0.624-0.892,0.921-1.359c0.091-0.143,0.175-0.271,0.264-0.41C265.323,337.923,264.327,338.292,263.2,338.535z"/>
				<path style="fill:#F0CEAA;" d="M267.667,330.381c-1.074,0.236-2.026,0.363-2.659,0.336c-0.114-0.004-0.205-0.021-0.298-0.039
					c-0.146,0.212-0.292,0.426-0.439,0.641c0.139,0.112,0.309,0.218,0.508,0.302c0.838,0.321,2.001,0.304,3.163,0.05
					c1.232-0.272,2.255-0.699,2.935-1.092c0.24-0.331,0.464-0.637,0.678-0.924C271.023,329.572,269.481,329.982,267.667,330.381z"/>
				<path style="fill:#F0CEAA;" d="M274.189,325.193c-0.982-0.353-2.207-0.086-3.349,0.287c-1.213,0.404-2.22,0.857-2.944,1.109
					c-0.101,0.039-0.184,0.064-0.273,0.095c-0.187,0.225-0.377,0.464-0.569,0.714c0.246,0.086,0.594,0.143,1.018,0.107
					c0.895-0.043,2.019-0.387,3.179-0.772c1.159-0.394,2.181-0.684,2.778-0.611c0.056,0.006,0.098,0.029,0.148,0.043
					C274.224,325.827,274.228,325.499,274.189,325.193z"/>
				<path style="fill:#F0CEAA;" d="M265.411,335.011c-0.627,0.112-1.214,0.146-1.736,0.108c-0.509-0.07-0.961-0.182-1.312-0.367
					c-0.135-0.067-0.247-0.137-0.36-0.205c-0.159,0.218-0.319,0.433-0.48,0.646c0.091,0.107,0.192,0.217,0.315,0.329
					c0.388,0.358,0.973,0.635,1.646,0.797c0.675,0.13,1.425,0.123,2.169-0.012c0.608-0.119,1.15-0.308,1.648-0.519
					c0.403-0.614,0.792-1.2,1.158-1.743C267.651,334.37,266.604,334.771,265.411,335.011z"/>
				<path style="fill:#F0CEAA;" d="M262.631,342.16c-0.275,0.065-0.638,0.182-1.074,0.325c-0.908,0.283-2.116,0.616-3.303,0.126
					c-1.079-0.506-2.279-1.526-2.278-2.021c-0.016-0.099,0.001-0.189,0.029-0.277c-0.319,0.127-0.638,0.217-0.956,0.263
					c-0.04,0.321,0.026,0.708,0.177,0.999c0.159,0.335,0.382,0.624,0.633,0.89c0.25,0.271,0.533,0.512,0.839,0.742
					c0.152,0.118,0.316,0.222,0.479,0.333l0.258,0.155c0.124,0.087,0.262,0.113,0.352,0.15c0.802,0.35,1.701,0.334,2.415,0.195
					c0.182-0.034,0.352-0.079,0.513-0.131C261.371,343.391,262.011,342.803,262.631,342.16z"/>
			</g>
			<path style="fill:#4D2812;" d="M258.232,349.067c-0.009-0.028-0.015-0.065-0.024-0.091c-5.646,0-14.295,18.567-11.295,22.557
				c2.203,0.025,4.795-1.619,4.795-1.619C251.953,363.289,251.532,352.057,258.232,349.067z"/>
			<path style="fill:#B89A6A;" d="M266.602,379.297c-4.769,1.367-9.832,7.18-9.332,12.805c0.25,1.625,6.313,3.625,6.313,3.625
				c-0.438-1.75-1.318-3.009-1.438-4.438C261.832,387.531,263.628,383.197,266.602,379.297z"/>
		</g>
		<g style="clip-path:url(#SVGID_00000156586715674563344290000015835764175626564781_);">
			<g style="opacity:0.3;">
				<path style="fill:#FFFFFF;" d="M481.355,86.332c0,37.976-30.785,68.761-68.763,68.761c-37.975,0-68.76-30.785-68.76-68.761
					c0-37.977,30.785-68.762,68.76-68.762C450.57,17.57,481.355,48.355,481.355,86.332z"/>
			</g>
			<g style="opacity:0.3;">
				<path style="fill:#FFFFFF;" d="M456.689,86.332c0,24.353-19.742,44.095-44.097,44.095c-24.352,0-44.094-19.742-44.094-44.095
					c0-24.354,19.742-44.096,44.094-44.096C436.947,42.236,456.689,61.979,456.689,86.332z"/>
			</g>
			<path style="fill:#FFAC29;" d="M442.856,86.332c0,16.713-13.549,30.262-30.263,30.262c-16.713,0-30.262-13.549-30.262-30.262
				c0-16.714,13.549-30.263,30.262-30.263C429.308,56.069,442.856,69.618,442.856,86.332z"/>
		</g>
		<g style="clip-path:url(#SVGID_00000156586715674563344290000015835764175626564781_);">
			<path style="fill:#FBC167;" d="M-36.667,426.414c41-11,114.5,14.316,163,18.408s119.834-19.074,165.834-24.408
				c63.426-7.354,184.598,17.5,239.882-11c-0.216,85-3.216,102.5-3.216,102.5h-560L-36.667,426.414z"/>
			<path style="opacity:0.5;fill:#D4904C;" d="M292.167,420.414c-6.044,0.701-12.534,1.715-19.344,2.93
				c1.631,3.552-21.014,11.881-8.656,15.07c10.333,2.667,54.166-8.443,65.166-7.346c15,1.097,27,5.486,42,3.292
				c16-2.743,31.5-2.195,47.5-3.841c11.5-1.098,22.5-3.841,34-4.39c6.5-0.549,13.5,0.549,19.5-3.292
				c-0.163-0.034-0.326-0.063-0.489-0.096C412.602,426.393,337.583,415.148,292.167,420.414z"/>
			<path style="opacity:0.5;fill:#D4904C;" d="M4.999,461c8.666-1.333,18-5.333,27.333-4c11.333,1.333,10.667,10,21.333,10
				c8.667,0,15.333-8,23.333-11.333c15.333-6,40-1.334,53.334-10c-0.367-0.227-0.741-0.439-1.113-0.653
				c-0.966-0.06-1.938-0.111-2.887-0.191c-48.5-4.092-122-29.408-163-18.408l1.874,29.122c4.632,1.003,9.374,1.859,13.792,2.797
				C-12.335,460.333-4.334,462.333,4.999,461z"/>
		</g>
	</g>
</g>
<g id="designed_by_freepik">
	<path style="fill:#AB6B2B;" d="M181.883,485.121v-0.16c-0.218,0.248-0.433,0.451-0.645,0.607c-0.211,0.156-0.44,0.275-0.689,0.355
		c-0.247,0.082-0.517,0.123-0.81,0.123c-0.388,0-0.748-0.082-1.078-0.246c-0.33-0.164-0.616-0.4-0.857-0.703
		c-0.242-0.307-0.425-0.664-0.55-1.074c-0.124-0.414-0.187-0.857-0.187-1.336c0-1.014,0.248-1.805,0.742-2.369
		c0.494-0.566,1.146-0.85,1.953-0.85c0.466,0,0.86,0.082,1.182,0.24c0.319,0.16,0.632,0.408,0.938,0.74v-2.393
		c0-0.332,0.065-0.584,0.199-0.754c0.132-0.17,0.32-0.256,0.566-0.256c0.245,0,0.435,0.078,0.567,0.234
		c0.132,0.156,0.199,0.387,0.199,0.691v7.148c0,0.309-0.071,0.539-0.214,0.693c-0.143,0.154-0.327,0.232-0.553,0.232
		c-0.222,0-0.404-0.08-0.55-0.24C181.955,485.645,181.883,485.416,181.883,485.121z M178.695,482.74
		c0,0.439,0.068,0.813,0.204,1.121c0.137,0.309,0.323,0.543,0.561,0.697c0.238,0.158,0.497,0.236,0.777,0.236
		c0.284,0,0.545-0.074,0.781-0.225c0.234-0.147,0.423-0.375,0.563-0.68c0.142-0.309,0.212-0.691,0.212-1.15
		c0-0.432-0.07-0.803-0.212-1.113c-0.14-0.311-0.329-0.549-0.568-0.713c-0.24-0.164-0.502-0.246-0.787-0.246
		c-0.297,0-0.562,0.084-0.795,0.254c-0.234,0.166-0.415,0.408-0.543,0.723C178.759,481.959,178.695,482.324,178.695,482.74z
		 M189.028,483.15h-3.169c0.004,0.367,0.077,0.691,0.223,0.973c0.144,0.281,0.337,0.492,0.576,0.637
		c0.239,0.143,0.503,0.211,0.792,0.211c0.194,0,0.371-0.022,0.531-0.066c0.161-0.047,0.316-0.115,0.466-0.213
		c0.15-0.098,0.29-0.203,0.415-0.313c0.127-0.111,0.291-0.262,0.493-0.453c0.083-0.07,0.202-0.105,0.356-0.105
		c0.166,0,0.301,0.047,0.403,0.137c0.103,0.092,0.155,0.219,0.155,0.385c0,0.147-0.058,0.318-0.173,0.516
		c-0.115,0.195-0.288,0.383-0.52,0.563c-0.232,0.18-0.521,0.328-0.873,0.449c-0.349,0.117-0.752,0.178-1.207,0.178
		c-1.041,0-1.851-0.299-2.428-0.891c-0.578-0.594-0.867-1.4-0.867-2.416c0-0.479,0.071-0.924,0.214-1.332
		c0.143-0.41,0.351-0.762,0.622-1.055c0.273-0.293,0.61-0.516,1.01-0.674c0.4-0.156,0.844-0.232,1.331-0.232
		c0.632,0,1.175,0.131,1.628,0.4c0.454,0.266,0.794,0.611,1.019,1.035c0.226,0.422,0.339,0.855,0.339,1.293
		c0,0.408-0.117,0.672-0.351,0.793C189.782,483.09,189.452,483.15,189.028,483.15z M185.859,482.23h2.939
		c-0.039-0.555-0.189-0.971-0.448-1.244c-0.26-0.275-0.601-0.414-1.023-0.414c-0.404,0-0.736,0.141-0.995,0.42
		C186.072,481.27,185.915,481.684,185.859,482.23z M196.413,483.926c0,0.449-0.107,0.832-0.326,1.15
		c-0.218,0.318-0.54,0.56-0.965,0.725c-0.426,0.164-0.943,0.246-1.553,0.246c-0.581,0-1.08-0.09-1.495-0.268
		c-0.416-0.178-0.723-0.402-0.92-0.668c-0.198-0.267-0.297-0.535-0.297-0.805c0-0.178,0.063-0.33,0.191-0.455
		c0.126-0.127,0.287-0.191,0.48-0.191c0.17,0,0.3,0.041,0.391,0.125c0.092,0.082,0.179,0.199,0.262,0.35
		c0.166,0.289,0.365,0.504,0.597,0.647c0.232,0.145,0.547,0.215,0.947,0.215c0.325,0,0.591-0.072,0.799-0.217
		c0.207-0.145,0.311-0.31,0.311-0.496c0-0.285-0.107-0.492-0.323-0.623c-0.216-0.131-0.571-0.256-1.065-0.375
		c-0.558-0.137-1.012-0.283-1.362-0.436c-0.351-0.15-0.63-0.354-0.84-0.602c-0.21-0.25-0.316-0.557-0.316-0.92
		c0-0.326,0.097-0.631,0.291-0.922c0.194-0.287,0.48-0.518,0.859-0.69c0.377-0.174,0.832-0.26,1.367-0.26
		c0.42,0,0.797,0.043,1.13,0.131c0.335,0.086,0.614,0.203,0.838,0.35c0.224,0.147,0.395,0.31,0.51,0.486
		c0.117,0.178,0.175,0.354,0.175,0.523c0,0.186-0.063,0.338-0.186,0.457c-0.124,0.119-0.302,0.178-0.532,0.178
		c-0.166,0-0.308-0.047-0.424-0.142c-0.117-0.096-0.25-0.236-0.401-0.428c-0.122-0.156-0.266-0.283-0.432-0.379
		c-0.168-0.096-0.393-0.143-0.678-0.143c-0.293,0-0.536,0.063-0.73,0.188c-0.193,0.123-0.29,0.279-0.29,0.465
		c0,0.172,0.07,0.31,0.212,0.42c0.144,0.107,0.335,0.199,0.578,0.27c0.24,0.07,0.572,0.156,0.997,0.262
		c0.502,0.123,0.912,0.27,1.23,0.439c0.318,0.168,0.561,0.371,0.725,0.602C196.331,483.365,196.413,483.629,196.413,483.926z
		 M198.068,478.705c-0.226,0-0.419-0.07-0.578-0.209c-0.16-0.139-0.241-0.334-0.241-0.588c0-0.23,0.082-0.418,0.247-0.568
		c0.163-0.148,0.355-0.221,0.572-0.221c0.21,0,0.396,0.066,0.558,0.201c0.163,0.135,0.244,0.33,0.244,0.588
		c0,0.25-0.08,0.445-0.237,0.584C198.474,478.633,198.286,478.705,198.068,478.705z M198.87,480.377v4.683
		c0,0.324-0.078,0.57-0.231,0.736c-0.155,0.166-0.351,0.25-0.589,0.25c-0.236,0-0.43-0.086-0.578-0.256
		c-0.148-0.17-0.223-0.414-0.223-0.73v-4.637c0-0.32,0.074-0.56,0.223-0.723c0.148-0.164,0.342-0.244,0.578-0.244
		c0.238,0,0.434,0.08,0.589,0.244C198.792,479.863,198.87,480.088,198.87,480.377z M205.969,480.645v4.707
		c0,0.539-0.058,1.002-0.172,1.391c-0.114,0.387-0.299,0.707-0.552,0.961c-0.254,0.252-0.585,0.441-0.995,0.563
		c-0.409,0.123-0.919,0.186-1.528,0.186c-0.558,0-1.057-0.078-1.496-0.234c-0.439-0.156-0.776-0.359-1.015-0.605
		c-0.237-0.248-0.356-0.502-0.356-0.764c0-0.197,0.067-0.359,0.203-0.484c0.134-0.123,0.296-0.186,0.485-0.186
		c0.238,0,0.445,0.105,0.624,0.313c0.086,0.107,0.177,0.217,0.269,0.326c0.093,0.107,0.196,0.201,0.309,0.279
		c0.112,0.076,0.248,0.133,0.406,0.17c0.159,0.037,0.341,0.057,0.546,0.057c0.42,0,0.746-0.057,0.977-0.174
		c0.232-0.117,0.394-0.281,0.486-0.492c0.094-0.207,0.147-0.432,0.164-0.672c0.016-0.24,0.027-0.625,0.035-1.156
		c-0.249,0.35-0.537,0.615-0.864,0.797c-0.326,0.182-0.716,0.273-1.166,0.273c-0.542,0-1.016-0.139-1.422-0.416
		c-0.405-0.277-0.717-0.664-0.935-1.162c-0.218-0.5-0.326-1.074-0.326-1.729c0-0.486,0.065-0.926,0.198-1.318
		c0.134-0.391,0.322-0.723,0.566-0.99c0.245-0.27,0.528-0.473,0.85-0.609c0.32-0.137,0.673-0.205,1.056-0.205
		c0.459,0,0.857,0.088,1.194,0.264c0.336,0.178,0.649,0.453,0.938,0.83v-0.221c0-0.281,0.069-0.498,0.208-0.654
		c0.139-0.152,0.316-0.23,0.534-0.23c0.313,0,0.521,0.103,0.622,0.305C205.918,479.967,205.969,480.26,205.969,480.645z
		 M201.274,482.699c0,0.656,0.143,1.152,0.43,1.49c0.287,0.336,0.658,0.504,1.113,0.504c0.268,0,0.522-0.072,0.762-0.217
		c0.24-0.145,0.435-0.361,0.586-0.652c0.15-0.293,0.226-0.645,0.226-1.06c0-0.66-0.145-1.176-0.436-1.543
		c-0.291-0.367-0.674-0.553-1.149-0.553c-0.464,0-0.833,0.178-1.113,0.529C201.413,481.549,201.274,482.051,201.274,482.699z
		 M208.545,480.353v0.197c0.284-0.377,0.597-0.652,0.935-0.83c0.338-0.176,0.727-0.264,1.166-0.264c0.429,0,0.81,0.094,1.147,0.279
		c0.336,0.186,0.588,0.449,0.753,0.789c0.107,0.197,0.177,0.412,0.209,0.641c0.031,0.231,0.048,0.524,0.048,0.879v3.016
		c0,0.324-0.075,0.57-0.224,0.736c-0.147,0.166-0.341,0.25-0.579,0.25c-0.241,0-0.436-0.086-0.587-0.256
		c-0.151-0.17-0.226-0.414-0.226-0.73v-2.701c0-0.533-0.074-0.943-0.223-1.225c-0.148-0.283-0.444-0.426-0.889-0.426
		c-0.288,0-0.552,0.086-0.788,0.258c-0.238,0.174-0.411,0.41-0.523,0.711c-0.08,0.242-0.119,0.691-0.119,1.354v2.029
		c0,0.328-0.076,0.576-0.227,0.74c-0.153,0.164-0.35,0.246-0.591,0.246c-0.234,0-0.426-0.086-0.576-0.256
		c-0.15-0.17-0.227-0.414-0.227-0.73v-4.683c0-0.309,0.067-0.539,0.202-0.692c0.136-0.152,0.318-0.228,0.552-0.228
		c0.143,0,0.271,0.033,0.387,0.102c0.115,0.066,0.206,0.168,0.275,0.301C208.511,479.996,208.545,480.16,208.545,480.353z
		 M218.404,483.15h-3.17c0.005,0.367,0.078,0.691,0.224,0.973c0.144,0.281,0.335,0.492,0.574,0.637
		c0.239,0.143,0.504,0.211,0.793,0.211c0.193,0,0.37-0.022,0.531-0.066c0.16-0.047,0.315-0.115,0.467-0.213
		c0.148-0.098,0.288-0.203,0.415-0.313c0.126-0.111,0.29-0.262,0.492-0.453c0.083-0.07,0.202-0.105,0.356-0.105
		c0.166,0,0.301,0.047,0.403,0.137c0.103,0.092,0.154,0.219,0.154,0.385c0,0.147-0.058,0.318-0.172,0.516
		c-0.115,0.195-0.288,0.383-0.521,0.563c-0.23,0.18-0.521,0.328-0.871,0.449c-0.351,0.117-0.754,0.178-1.209,0.178
		c-1.04,0-1.85-0.299-2.428-0.891c-0.577-0.594-0.867-1.4-0.867-2.416c0-0.479,0.072-0.924,0.214-1.332
		c0.144-0.41,0.351-0.762,0.624-1.055c0.273-0.293,0.609-0.516,1.01-0.674c0.398-0.156,0.842-0.232,1.329-0.232
		c0.634,0,1.176,0.131,1.628,0.4c0.454,0.266,0.794,0.611,1.02,1.035c0.225,0.422,0.338,0.855,0.338,1.293
		c0,0.408-0.115,0.672-0.35,0.793C219.156,483.09,218.828,483.15,218.404,483.15z M215.234,482.23h2.938
		c-0.039-0.555-0.188-0.971-0.447-1.244c-0.259-0.275-0.601-0.414-1.024-0.414c-0.404,0-0.734,0.141-0.995,0.42
		C215.446,481.27,215.29,481.684,215.234,482.23z M225.01,485.121v-0.16c-0.218,0.248-0.433,0.451-0.644,0.607
		c-0.213,0.156-0.44,0.275-0.689,0.355c-0.247,0.082-0.518,0.123-0.811,0.123c-0.389,0-0.747-0.082-1.077-0.246
		c-0.33-0.164-0.616-0.4-0.857-0.703c-0.242-0.307-0.425-0.664-0.55-1.074c-0.124-0.414-0.187-0.857-0.187-1.336
		c0-1.014,0.246-1.805,0.742-2.369c0.494-0.566,1.145-0.85,1.953-0.85c0.466,0,0.86,0.082,1.181,0.24
		c0.32,0.16,0.633,0.408,0.938,0.74v-2.393c0-0.332,0.066-0.584,0.2-0.754c0.132-0.17,0.32-0.256,0.566-0.256
		c0.245,0,0.434,0.078,0.566,0.234c0.133,0.156,0.198,0.387,0.198,0.691v7.148c0,0.309-0.07,0.539-0.213,0.693
		c-0.142,0.154-0.326,0.232-0.552,0.232c-0.222,0-0.404-0.08-0.55-0.24C225.083,485.645,225.01,485.416,225.01,485.121z
		 M221.822,482.74c0,0.439,0.068,0.813,0.205,1.121c0.137,0.309,0.323,0.543,0.562,0.697c0.236,0.158,0.495,0.236,0.776,0.236
		c0.285,0,0.546-0.074,0.781-0.225c0.235-0.147,0.424-0.375,0.564-0.68c0.141-0.309,0.212-0.691,0.212-1.15
		c0-0.432-0.071-0.803-0.212-1.113c-0.14-0.311-0.33-0.549-0.569-0.713c-0.239-0.164-0.502-0.246-0.786-0.246
		c-0.297,0-0.563,0.084-0.796,0.254c-0.233,0.166-0.414,0.408-0.544,0.723C221.887,481.959,221.822,482.324,221.822,482.74z
		 M231.634,477.973v2.477c0.305-0.316,0.615-0.56,0.932-0.728c0.316-0.166,0.709-0.252,1.176-0.252c0.539,0,1.01,0.127,1.416,0.383
		c0.406,0.256,0.721,0.627,0.943,1.111c0.225,0.482,0.336,1.059,0.336,1.725c0,0.49-0.063,0.94-0.185,1.35
		c-0.125,0.41-0.307,0.764-0.545,1.064c-0.236,0.303-0.525,0.535-0.863,0.699c-0.338,0.164-0.711,0.246-1.119,0.246
		c-0.25,0-0.484-0.029-0.703-0.09c-0.221-0.059-0.407-0.137-0.561-0.234c-0.153-0.096-0.285-0.195-0.396-0.299
		c-0.108-0.103-0.252-0.258-0.43-0.463v0.16c0,0.305-0.073,0.535-0.22,0.691c-0.146,0.156-0.332,0.234-0.558,0.234
		c-0.229,0-0.412-0.078-0.549-0.234c-0.137-0.156-0.205-0.387-0.205-0.691v-7.078c0-0.328,0.066-0.576,0.198-0.744
		c0.132-0.166,0.317-0.252,0.556-0.252c0.249,0,0.44,0.08,0.575,0.24C231.565,477.447,231.634,477.676,231.634,477.973z
		 M231.711,482.787c0,0.646,0.148,1.141,0.442,1.486c0.295,0.348,0.682,0.521,1.16,0.521c0.408,0,0.76-0.178,1.055-0.531
		c0.293-0.355,0.441-0.861,0.441-1.523c0-0.428-0.061-0.797-0.184-1.104c-0.123-0.309-0.297-0.549-0.522-0.715
		c-0.227-0.17-0.49-0.254-0.791-0.254c-0.309,0-0.584,0.084-0.825,0.254c-0.241,0.166-0.431,0.41-0.569,0.728
		C231.78,481.969,231.711,482.348,231.711,482.787z M238.538,486.248l0.148-0.363l-1.994-5.021
		c-0.123-0.287-0.186-0.498-0.186-0.629c0-0.139,0.037-0.268,0.107-0.385c0.072-0.119,0.17-0.215,0.293-0.285
		c0.125-0.072,0.254-0.108,0.391-0.108c0.232,0,0.408,0.074,0.527,0.223c0.119,0.148,0.225,0.361,0.314,0.639l1.373,3.988
		l1.299-3.711c0.104-0.299,0.195-0.535,0.279-0.705c0.082-0.17,0.17-0.285,0.264-0.344c0.094-0.061,0.225-0.09,0.397-0.09
		c0.123,0,0.24,0.031,0.351,0.098c0.113,0.066,0.201,0.154,0.262,0.266c0.061,0.109,0.092,0.227,0.092,0.35
		c-0.016,0.074-0.041,0.182-0.078,0.32c-0.035,0.139-0.078,0.279-0.129,0.422l-2.115,5.533c-0.182,0.484-0.359,0.867-0.533,1.145
		c-0.174,0.277-0.404,0.49-0.691,0.639c-0.287,0.149-0.674,0.223-1.162,0.223c-0.475,0-0.83-0.053-1.066-0.154
		c-0.238-0.104-0.357-0.293-0.357-0.565c0-0.185,0.057-0.33,0.17-0.432c0.111-0.1,0.279-0.15,0.5-0.15
		c0.088,0,0.174,0.012,0.256,0.037c0.104,0.023,0.193,0.035,0.268,0.035c0.185,0,0.332-0.029,0.439-0.084
		c0.107-0.055,0.201-0.15,0.287-0.289C238.329,486.715,238.427,486.514,238.538,486.248z M262.015,479.598
		c-0.543,0-0.813,0.191-0.813,0.582c0,0.174,0.065,0.316,0.196,0.424c0.132,0.111,0.314,0.164,0.558,0.164h0.447v4.295
		c0,0.318,0.074,0.563,0.227,0.728c0.155,0.17,0.345,0.254,0.574,0.254c0.242,0,0.438-0.084,0.589-0.254
		c0.155-0.166,0.231-0.41,0.231-0.728v-4.295h0.395c0.29,0,0.516-0.035,0.68-0.107c0.166-0.07,0.245-0.24,0.245-0.504
		c0-0.373-0.307-0.559-0.925-0.559h-0.395v-0.385c0-0.322,0.042-0.57,0.122-0.742c0.086-0.17,0.273-0.258,0.564-0.258
		c0.107,0,0.242,0.014,0.39,0.033c0.156,0.025,0.268,0.039,0.33,0.039c0.134,0,0.252-0.057,0.349-0.16
		c0.101-0.107,0.15-0.236,0.15-0.385c0-0.469-0.472-0.697-1.421-0.697c-0.533,0-0.953,0.068-1.26,0.203
		c-0.308,0.137-0.527,0.355-0.654,0.654c-0.13,0.299-0.191,0.701-0.191,1.211v0.486H262.015 M267.321,483.707
		c0-0.488,0.014-0.9,0.044-1.24c0.034-0.336,0.091-0.631,0.171-0.877c0.083-0.242,0.201-0.426,0.353-0.555
		c0.149-0.121,0.345-0.186,0.583-0.186c0.171,0,0.373,0.037,0.602,0.107c0.226,0.074,0.37,0.113,0.432,0.113
		c0.158,0,0.305-0.064,0.442-0.195c0.134-0.125,0.204-0.291,0.204-0.488c0-0.279-0.16-0.508-0.483-0.678
		c-0.321-0.172-0.648-0.256-0.991-0.256c-0.342,0-0.61,0.084-0.818,0.256c-0.202,0.17-0.4,0.422-0.593,0.756
		c-0.014-0.334-0.079-0.586-0.198-0.756c-0.119-0.172-0.313-0.256-0.583-0.256c-0.526,0-0.789,0.365-0.789,1.094v4.516
		c0,0.322,0.078,0.568,0.227,0.732c0.148,0.168,0.34,0.25,0.578,0.25c0.237,0,0.433-0.08,0.586-0.246
		c0.151-0.164,0.234-0.41,0.234-0.736V483.707 M274.771,483.148H271.6c0.007,0.367,0.078,0.693,0.223,0.975
		c0.146,0.277,0.337,0.49,0.577,0.635c0.24,0.143,0.503,0.213,0.794,0.213c0.193,0,0.369-0.022,0.53-0.07
		c0.159-0.043,0.315-0.115,0.466-0.213c0.151-0.094,0.288-0.199,0.415-0.313c0.127-0.109,0.291-0.26,0.494-0.449
		c0.084-0.07,0.202-0.107,0.355-0.107c0.167,0,0.3,0.045,0.405,0.137c0.103,0.094,0.152,0.221,0.152,0.387
		c0,0.147-0.057,0.316-0.167,0.512c-0.117,0.199-0.29,0.385-0.522,0.566c-0.234,0.18-0.525,0.33-0.874,0.445
		c-0.35,0.121-0.754,0.18-1.208,0.18c-1.043,0-1.852-0.295-2.429-0.889c-0.577-0.596-0.869-1.4-0.869-2.418
		c0-0.479,0.073-0.924,0.217-1.334c0.141-0.412,0.349-0.76,0.624-1.055c0.272-0.295,0.606-0.518,1.009-0.674
		c0.397-0.154,0.841-0.232,1.329-0.232c0.632,0,1.176,0.133,1.63,0.402c0.451,0.266,0.796,0.609,1.018,1.033
		c0.225,0.426,0.338,0.855,0.338,1.297c0,0.406-0.117,0.67-0.35,0.791C275.523,483.088,275.195,483.148,274.771,483.148
		 M271.6,482.227h2.939c-0.039-0.553-0.186-0.969-0.445-1.24c-0.262-0.277-0.6-0.414-1.025-0.414c-0.404,0-0.736,0.137-0.995,0.418
		C271.814,481.27,271.655,481.682,271.6,482.227 M281.515,483.148h-3.172c0.004,0.367,0.078,0.693,0.222,0.975
		c0.145,0.277,0.337,0.49,0.577,0.635c0.239,0.143,0.503,0.213,0.795,0.213c0.191,0,0.369-0.022,0.527-0.07
		c0.162-0.043,0.315-0.115,0.469-0.213c0.151-0.094,0.288-0.199,0.415-0.313c0.124-0.109,0.29-0.26,0.493-0.449
		c0.084-0.07,0.203-0.107,0.354-0.107c0.168,0,0.302,0.045,0.407,0.137c0.103,0.094,0.15,0.221,0.15,0.387
		c0,0.147-0.055,0.316-0.171,0.512c-0.11,0.199-0.284,0.385-0.519,0.566c-0.231,0.18-0.524,0.33-0.873,0.445
		c-0.348,0.121-0.754,0.18-1.208,0.18c-1.043,0-1.85-0.295-2.431-0.889c-0.577-0.596-0.868-1.4-0.868-2.418
		c0-0.479,0.072-0.924,0.218-1.334c0.142-0.412,0.349-0.76,0.622-1.055c0.272-0.295,0.608-0.518,1.009-0.674
		c0.4-0.154,0.846-0.232,1.332-0.232c0.631,0,1.174,0.133,1.633,0.402c0.45,0.266,0.791,0.609,1.014,1.033
		c0.225,0.426,0.34,0.855,0.34,1.297c0,0.406-0.119,0.67-0.35,0.791C282.266,483.088,281.936,483.148,281.515,483.148
		 M278.343,482.227h2.939c-0.04-0.553-0.19-0.969-0.446-1.24c-0.264-0.277-0.602-0.414-1.026-0.414
		c-0.404,0-0.735,0.137-0.998,0.418C278.555,481.27,278.396,481.682,278.343,482.227 M285.064,480.365v0.195
		c0.304-0.375,0.621-0.652,0.953-0.828c0.323-0.178,0.698-0.266,1.113-0.266c0.497,0,0.96,0.129,1.38,0.385
		c0.42,0.26,0.749,0.635,0.993,1.129c0.243,0.498,0.366,1.08,0.366,1.758c0,0.498-0.07,0.957-0.21,1.377
		c-0.141,0.416-0.336,0.766-0.581,1.049c-0.245,0.281-0.534,0.502-0.868,0.654c-0.339,0.15-0.694,0.227-1.08,0.227
		c-0.461,0-0.852-0.092-1.166-0.279c-0.313-0.184-0.613-0.459-0.9-0.816v2.434c0,0.709-0.26,1.068-0.777,1.068
		c-0.307,0-0.506-0.092-0.607-0.273c-0.095-0.188-0.146-0.453-0.146-0.809v-6.994c0-0.31,0.067-0.537,0.2-0.693
		c0.135-0.15,0.32-0.229,0.554-0.229c0.23,0,0.416,0.078,0.56,0.234C284.993,479.848,285.064,480.068,285.064,480.365
		 M288.242,482.721c0-0.428-0.066-0.797-0.197-1.102c-0.13-0.307-0.31-0.541-0.54-0.705c-0.229-0.164-0.49-0.248-0.77-0.248
		c-0.447,0-0.824,0.178-1.131,0.527c-0.308,0.354-0.462,0.873-0.462,1.559c0,0.641,0.152,1.145,0.46,1.504
		c0.304,0.357,0.679,0.535,1.133,0.535c0.268,0,0.518-0.078,0.748-0.23c0.232-0.16,0.415-0.392,0.552-0.705
		C288.172,483.541,288.242,483.164,288.242,482.721 M291.502,478.699c-0.227,0-0.418-0.07-0.577-0.209
		c-0.162-0.139-0.241-0.332-0.241-0.586c0-0.228,0.081-0.418,0.247-0.568c0.164-0.146,0.354-0.223,0.571-0.223
		c0.213,0,0.397,0.068,0.558,0.201c0.162,0.137,0.244,0.332,0.244,0.59c0,0.25-0.08,0.445-0.236,0.586
		C291.91,478.629,291.722,478.699,291.502,478.699 M292.305,480.375v4.688c0,0.322-0.077,0.568-0.232,0.732
		c-0.156,0.168-0.35,0.25-0.588,0.25c-0.238,0-0.429-0.084-0.58-0.254c-0.147-0.172-0.222-0.416-0.222-0.728v-4.643
		c0-0.318,0.075-0.559,0.222-0.721c0.151-0.166,0.342-0.246,0.58-0.246c0.238,0,0.432,0.08,0.588,0.246
		C292.227,479.861,292.305,480.088,292.305,480.375 M297.529,485.307c0.182,0.275,0.329,0.471,0.435,0.578
		c0.107,0.109,0.261,0.16,0.459,0.16c0.226,0,0.412-0.072,0.553-0.221c0.142-0.15,0.214-0.352,0.214-0.609
		c0-0.09-0.029-0.189-0.082-0.289c-0.053-0.102-0.144-0.244-0.265-0.441l-1.661-2.613l0.86-0.791
		c0.438-0.395,0.659-0.713,0.659-0.949c0-0.193-0.068-0.355-0.2-0.484c-0.14-0.129-0.307-0.193-0.511-0.193
		c-0.168,0-0.313,0.045-0.431,0.131c-0.121,0.086-0.29,0.252-0.517,0.486l-1.822,1.914v-3.934c0-0.33-0.074-0.582-0.221-0.75
		c-0.148-0.172-0.345-0.258-0.594-0.258c-0.255,0-0.456,0.092-0.596,0.283c-0.135,0.189-0.207,0.463-0.207,0.82v6.916
		c0,0.322,0.073,0.568,0.215,0.732c0.142,0.168,0.339,0.25,0.588,0.25c0.213,0,0.405-0.084,0.566-0.254
		c0.165-0.166,0.248-0.406,0.248-0.719v-1.289l0.88-0.83L297.529,485.307 M301.052,486.045c0.237,0,0.444-0.078,0.624-0.24
		c0.175-0.158,0.264-0.381,0.264-0.662c0-0.244-0.089-0.455-0.264-0.627c-0.18-0.17-0.391-0.258-0.64-0.258
		c-0.25,0-0.458,0.088-0.63,0.262c-0.17,0.174-0.257,0.381-0.257,0.623c0,0.287,0.091,0.508,0.269,0.664
		C300.597,485.967,300.807,486.045,301.052,486.045 M309.113,484.039c0-0.168-0.067-0.332-0.199-0.48
		c-0.128-0.15-0.293-0.227-0.49-0.227c-0.167,0-0.309,0.053-0.423,0.154c-0.113,0.104-0.22,0.246-0.318,0.428
		c-0.177,0.311-0.381,0.539-0.616,0.689c-0.23,0.15-0.509,0.225-0.835,0.225c-0.239,0-0.463-0.045-0.665-0.141
		c-0.202-0.094-0.373-0.228-0.517-0.408c-0.143-0.182-0.252-0.398-0.325-0.652c-0.075-0.256-0.114-0.537-0.114-0.844
		c0-0.645,0.147-1.16,0.439-1.533c0.294-0.375,0.683-0.56,1.158-0.56c0.333,0,0.606,0.074,0.821,0.226
		c0.219,0.149,0.424,0.375,0.623,0.674c0.108,0.158,0.209,0.27,0.299,0.34c0.089,0.068,0.201,0.104,0.338,0.104
		c0.202,0,0.378-0.068,0.524-0.203c0.143-0.135,0.215-0.301,0.215-0.492c0-0.191-0.064-0.396-0.193-0.617
		c-0.127-0.217-0.314-0.424-0.556-0.619c-0.245-0.193-0.54-0.352-0.891-0.475c-0.353-0.123-0.736-0.184-1.157-0.184
		c-0.674,0-1.26,0.137-1.747,0.418c-0.485,0.279-0.858,0.674-1.113,1.184c-0.259,0.512-0.387,1.098-0.387,1.764
		c0,0.982,0.282,1.766,0.841,2.352c0.563,0.582,1.346,0.875,2.349,0.875c0.469,0,0.894-0.064,1.27-0.191
		c0.377-0.125,0.688-0.295,0.934-0.502c0.249-0.209,0.434-0.426,0.555-0.656C309.053,484.457,309.113,484.238,309.113,484.039
		 M316.106,482.75c0,0.482-0.075,0.928-0.222,1.338c-0.154,0.408-0.37,0.758-0.655,1.049c-0.285,0.293-0.627,0.518-1.02,0.676
		c-0.399,0.154-0.844,0.234-1.337,0.234c-0.491,0-0.933-0.08-1.326-0.24c-0.389-0.156-0.73-0.383-1.016-0.676
		c-0.288-0.297-0.505-0.646-0.657-1.049c-0.143-0.4-0.219-0.846-0.219-1.332c0-0.49,0.077-0.94,0.224-1.348
		c0.151-0.41,0.368-0.758,0.649-1.045c0.281-0.289,0.621-0.512,1.019-0.67c0.403-0.156,0.844-0.234,1.326-0.234
		c0.49,0,0.936,0.078,1.337,0.24c0.398,0.156,0.739,0.383,1.027,0.674c0.286,0.297,0.502,0.643,0.649,1.045
		C316.032,481.82,316.106,482.262,316.106,482.75 M314.479,482.75c0-0.66-0.146-1.174-0.436-1.543
		c-0.289-0.371-0.682-0.553-1.172-0.553c-0.317,0-0.597,0.082-0.839,0.244c-0.241,0.164-0.426,0.406-0.557,0.729
		c-0.131,0.32-0.196,0.695-0.196,1.123c0,0.426,0.063,0.793,0.192,1.109c0.131,0.32,0.314,0.56,0.555,0.728
		c0.24,0.168,0.522,0.252,0.845,0.252c0.49,0,0.883-0.184,1.172-0.557C314.333,483.914,314.479,483.402,314.479,482.75
		 M322.29,482.871c0-0.695,0.061-1.178,0.177-1.453c0.108-0.211,0.259-0.383,0.45-0.508c0.193-0.125,0.396-0.191,0.609-0.191
		c0.264,0,0.463,0.072,0.596,0.215c0.128,0.141,0.21,0.318,0.239,0.527c0.028,0.211,0.043,0.488,0.043,0.838v2.725
		c0,0.338,0.079,0.592,0.235,0.766c0.156,0.172,0.357,0.258,0.603,0.258c0.253,0,0.458-0.086,0.612-0.256
		c0.153-0.172,0.23-0.426,0.23-0.768v-3.164c0-0.629-0.068-1.09-0.207-1.385c-0.158-0.322-0.398-0.572-0.716-0.748
		c-0.321-0.172-0.706-0.26-1.147-0.26c-0.381,0-0.727,0.08-1.039,0.24c-0.314,0.16-0.607,0.406-0.881,0.738
		c-0.192-0.326-0.433-0.572-0.726-0.736c-0.292-0.162-0.642-0.242-1.049-0.242c-0.393,0-0.748,0.078-1.07,0.24
		c-0.318,0.156-0.62,0.404-0.903,0.738v-0.154c0-0.262-0.073-0.467-0.221-0.615c-0.15-0.145-0.335-0.223-0.558-0.223
		c-0.228,0-0.413,0.078-0.556,0.24c-0.141,0.156-0.21,0.389-0.21,0.693v4.637c0,0.338,0.078,0.592,0.235,0.766
		c0.156,0.172,0.356,0.258,0.604,0.258c0.248,0,0.446-0.086,0.603-0.258c0.149-0.174,0.227-0.428,0.227-0.766v-2.188
		c0-0.684,0.086-1.207,0.254-1.566c0.168-0.371,0.516-0.551,1.047-0.551c0.264,0,0.459,0.072,0.582,0.219
		c0.121,0.143,0.198,0.332,0.227,0.553c0.026,0.225,0.04,0.545,0.04,0.951v2.582c0,0.342,0.078,0.596,0.231,0.768
		c0.15,0.17,0.35,0.256,0.595,0.256c0.254,0,0.455-0.086,0.611-0.256c0.155-0.172,0.231-0.426,0.231-0.768V482.871 M246.849,482.359
		c-0.002-0.004-0.002-0.006-0.002-0.012C246.847,482.353,246.847,482.355,246.849,482.359z M246.929,482.877
		c0.002,0,0.002,0,0.002,0c-0.031-0.149-0.055-0.295-0.072-0.44C246.876,482.584,246.899,482.73,246.929,482.877z M247.466,484.381
		c-0.002-0.006-0.006-0.014-0.01-0.021C247.46,484.367,247.464,484.375,247.466,484.381z M247.415,484.281
		c-0.014-0.027-0.027-0.057-0.041-0.084C247.388,484.227,247.401,484.254,247.415,484.281z M247.081,483.457
		c0.08,0.25,0.174,0.492,0.285,0.723c-0.113-0.236-0.205-0.478-0.283-0.723H247.081z M253.121,476.148
		c0.314,0,0.544,0.025,0.81,0.068l0.075-0.475c0,0-0.732-0.227-1.694-0.146l-0.076-0.26c0.299-0.063,0.524-0.33,0.524-0.646
		c0-0.363-0.297-0.66-0.661-0.66c-0.365,0-0.66,0.297-0.66,0.66c0,0.316,0.225,0.584,0.522,0.646l0.084,0.289
		c-1.021,0.141-1.835,0.539-1.835,0.539l0.144,0.441c0.617-0.207,1.153-0.332,1.641-0.385
		C252.471,476.17,252.829,476.148,253.121,476.148z M247.454,478.56l0.004-0.006c0.023-0.031,0.047-0.061,0.07-0.088l-0.195-0.143
		l-0.305-0.223c-0.018,0.023-0.496,0.467-0.877,1.279c-0.016-0.025-0.033-0.049-0.055-0.074c-0.115-0.123-0.273-0.186-0.475-0.182
		c-0.002,0-0.006,0-0.01,0c-0.125,0-0.209-0.043-0.266-0.094c0.057-0.07,0.088-0.16,0.088-0.258c0-0.23-0.186-0.418-0.418-0.418
		c-0.23,0-0.418,0.188-0.418,0.418c0,0.23,0.188,0.418,0.418,0.418c0.037,0,0.07-0.006,0.106-0.012
		c0.101,0.113,0.266,0.213,0.504,0.209c0.123-0.002,0.213,0.029,0.273,0.096c0.07,0.076,0.092,0.185,0.1,0.268v0.004
		c-0.273,0.742-0.195,1.668-0.195,1.668l0.66,0.025c0.014-0.336,0.063-0.926,0.232-1.395
		C247.024,479.15,247.436,478.584,247.454,478.56z M258.87,476.701c-0.229,0-0.418,0.188-0.418,0.418
		c0,0.035,0.005,0.07,0.015,0.104c-0.114,0.104-0.215,0.268-0.211,0.506c0.003,0.123-0.029,0.213-0.097,0.274
		c-0.052,0.047-0.119,0.07-0.184,0.088c-0.492-0.689-1.098-1.111-1.098-1.111l-0.475,0.51c0.358,0.326,0.725,0.734,1.08,1.244
		c0.246,0.352,0.499,0.805,0.71,1.258l0.64-0.303c0,0-0.291-0.723-0.703-1.371c0.071-0.023,0.144-0.063,0.207-0.119
		c0.125-0.113,0.187-0.273,0.183-0.473c-0.001-0.131,0.042-0.219,0.093-0.277c0.072,0.055,0.161,0.09,0.258,0.09
		c0.232,0,0.419-0.188,0.419-0.418C259.289,476.889,259.102,476.701,258.87,476.701z M257.21,482.451
		c-0.881,0.43-2.33,0.996-4.238,1.264c-0.75,0.104-1.475,0.143-2.143,0.143c-0.869,0-1.637-0.064-2.227-0.141
		c-0.672-0.084-1.197-0.188-1.52-0.26c0.078,0.244,0.17,0.486,0.283,0.723c0.002,0.006,0.006,0.014,0.008,0.018
		c0.014,0.027,0.027,0.057,0.041,0.084c0.014,0.027,0.027,0.055,0.041,0.078c0.004,0.008,0.008,0.016,0.01,0.021
		c0.189,0.355,0.418,0.684,0.676,0.967c0.9,0.986,1.816,1.141,1.824,1.143l0.016,0.002l0.014,0.006
		c0.008,0.002,0.82,0.264,2.056,0.264c1.217,0,2.41-0.244,3.547-0.728c0.842-0.432,1.639-1.086,2.033-1.668
		c0.306-0.453,0.526-0.934,0.657-1.436c0.069-0.266,0.124-0.691,0.091-1.139C258.132,481.957,257.739,482.193,257.21,482.451z
		 M247.737,478.77c-0.027,0.035-0.408,0.576-0.711,1.406c-0.225,0.623-0.215,1.527-0.215,1.539l0,0c0,0.213,0.012,0.424,0.035,0.633
		c0,0.006,0,0.008,0.002,0.012c0.002,0.027,0.006,0.053,0.01,0.078c0.018,0.145,0.041,0.291,0.074,0.44
		c0.436,0.111,3.047,0.721,5.966,0.313c1.83-0.254,3.22-0.793,4.063-1.203c0.7-0.34,1.151-0.648,1.324-0.773
		c-0.173-0.643-0.65-1.65-1.089-2.279c-1.253-1.791-2.604-2.25-3.298-2.365c-0.265-0.043-0.477-0.068-0.777-0.068
		c-0.279,0-0.627,0.023-1.09,0.072c-0.465,0.049-0.982,0.17-1.583,0.371c-0.842,0.283-1.604,0.727-2.203,1.281l-0.019,0.018
		C248.136,478.324,247.95,478.496,247.737,478.77z M255.405,478.352c0.601,0,1.089,0.488,1.089,1.09s-0.488,1.09-1.089,1.09
		s-1.089-0.488-1.089-1.09S254.805,478.352,255.405,478.352z M250.255,478.309c0.973,0,1.76,0.789,1.76,1.76
		c0,0.973-0.787,1.76-1.76,1.76c-0.973,0-1.76-0.787-1.76-1.76C248.495,479.098,249.282,478.309,250.255,478.309z"/>
</g>
</svg>
