<?xml version="1.0" encoding="utf-8"?>
<!-- Svg Vector Icons : http://www.onlinewebfonts.com/icon -->
<!DOCTYPE svg PUBLIC "-//W3C//DTD SVG 1.1//EN" "http://www.w3.org/Graphics/SVG/1.1/DTD/svg11.dtd">
<svg version="1.1" xmlns="http://www.w3.org/2000/svg" xmlns:xlink="http://www.w3.org/1999/xlink" x="0px" y="0px" viewBox="0 0 256 256" enable-background="new 0 0 256 256" xml:space="preserve">
<metadata> Svg Vector Icons : http://www.onlinewebfonts.com/icon </metadata>
<g><g><path fill="#000000" d="M81.5,148.6c0,1.5,1.5,3,3,3H173c1.5,0,3-1.5,3-3c0-1.5-1.5-3-3-3H84.5C83,145.7,81.5,147.2,81.5,148.6"/><path fill="#000000" d="M173,163.4H84.5c-1.5,0-3,1.5-3,3c0,1.5,1.5,3,3,3H173c1.5,0,3-1.5,3-3C175.9,164.9,174.4,163.4,173,163.4"/><path fill="#000000" d="M63.8,145.7H52c-2.9,0-5.9,3-5.9,5.9v11.8c0,3,3,5.9,5.9,5.9h11.8c3,0,5.9-3,5.9-5.9v-11.8C69.7,148.6,66.8,145.7,63.8,145.7"/><path fill="#000000" d="M84.5,110.3h47.2c1.5,0,3-1.5,3-3c0-1.5-1.5-3-3-3H84.5c-1.5,0-3,1.5-3,3C81.5,108.8,83,110.3,84.5,110.3"/><path fill="#000000" d="M84.5,128h47.2c1.5,0,3-1.5,3-3c0-1.5-1.5-2.9-3-2.9H84.5c-1.5,0-3,1.5-3,2.9C81.5,126.5,83,128,84.5,128"/><path fill="#000000" d="M63.8,104.4H52c-2.9,0-5.9,3-5.9,5.9v11.8c0,2.9,3,5.9,5.9,5.9h11.8c3,0,5.9-3,5.9-5.9v-11.8C69.7,107.4,66.8,104.4,63.8,104.4"/><path fill="#000000" d="M131.7,187H84.5c-1.5,0-3,1.5-3,3c0,1.5,1.5,2.9,3,2.9h47.2c1.5,0,3-1.5,3-2.9C134.6,188.5,133.1,187,131.7,187"/><path fill="#000000" d="M131.7,204.7H84.5c-1.5,0-3,1.5-3,2.9c0,1.5,1.5,3,3,3h47.2c1.5,0,3-1.5,3-3C134.6,206.2,133.1,204.7,131.7,204.7"/><path fill="#000000" d="M63.8,187H52c-2.9,0-5.9,3-5.9,5.9v11.8c0,2.9,3,5.9,5.9,5.9h11.8c3,0,5.9-3,5.9-5.9v-11.8C69.7,190,66.8,187,63.8,187"/><path fill="#000000" d="M84.5,69h47.2c1.5,0,3-1.5,3-2.9c0-1.5-1.5-3-3-3H84.5c-1.5,0-3,1.5-3,3C81.5,67.5,83,69,84.5,69"/><path fill="#000000" d="M84.5,86.7h47.2c1.5,0,3-1.5,3-2.9c0-1.5-1.5-3-3-3H84.5c-1.5,0-3,1.5-3,3C81.5,85.2,83,86.7,84.5,86.7"/><path fill="#000000" d="M63.8,63.1H52c-2.9,0-5.9,3-5.9,5.9v11.8c0,3,3,5.9,5.9,5.9h11.8c3,0,5.9-2.9,5.9-5.9V69C69.7,66.1,66.8,63.1,63.8,63.1"/><path fill="#000000" d="M199.5,100l-10.3,16.2l-4.4,7.4l-23.6-25.1l8.8-8.8l13.3,13.3l5.9-8.9l10.3-16.2l8.9-13.3l8.9,4.4L199.5,100z M116.9,15.9c3,0,5.9,3,5.9,5.9H99.2c0-3,3-5.9,5.9-5.9H116.9z M152.3,234.2v-29.5c0-3,3-5.9,5.9-5.9h26.6h4.4L152.3,234.2z M189.2,133.9v59h-31c-5.9,0-11.8,5.9-11.8,11.8v29.5H40.2c-3,0-5.9-3-5.9-5.9V45.4c0-3,3-5.9,5.9-5.9h41.3c0,3,3,5.9,5.9,5.9h47.2c2.9,0,5.9-3,5.9-5.9h42.8c2.9,0,5.9,3,5.9,5.9c-25.1,0-44.3,19.2-44.3,44.3C144.9,114.7,164.1,133.9,189.2,133.9 M199.5,46.9V33.6c0-2.9-2.9-5.9-5.9-5.9h-53.1v-5.9c0-3-3-5.9-5.9-5.9h-5.9c0-3-3-5.9-5.9-5.9H99.2c-3,0-5.9,3-5.9,5.9h-5.9c-3,0-5.9,3-5.9,5.9v5.9H28.4c-2.9,0-5.9,3-5.9,5.9v206.5c0,2.9,3,5.9,5.9,5.9h118h47.2c3,0,5.9-3,5.9-5.9v-47.2v-60.5c19.2-4.4,33.9-22.1,33.9-42.8C233.4,69,218.7,51.3,199.5,46.9"/></g></g>
</svg>