<?xml version="1.0" encoding="utf-8"?>
<!-- Svg Vector Icons : http://www.onlinewebfonts.com/icon -->
<!DOCTYPE svg PUBLIC "-//W3C//DTD SVG 1.1//EN" "http://www.w3.org/Graphics/SVG/1.1/DTD/svg11.dtd">
<svg version="1.1" xmlns="http://www.w3.org/2000/svg" xmlns:xlink="http://www.w3.org/1999/xlink" x="0px" y="0px" viewBox="0 0 256 256" enable-background="new 0 0 256 256" xml:space="preserve">
<metadata> Svg Vector Icons : http://www.onlinewebfonts.com/icon </metadata>
<g><g><g><path fill="#000000" d="M212.8,206.5c0.1-0.1,0.1-0.2,0.2-0.3c0,0,0-0.1,0.1-0.1c0.1-0.1,0.1-0.2,0.2-0.3c0,0,0,0,0-0.1c0.1-0.1,0.1-0.3,0.2-0.4c0,0,0,0,0,0c0-0.1,0.1-0.3,0.2-0.4c0,0,0,0,0,0c0-0.1,0.1-0.3,0.1-0.5c0,0,0-0.1,0-0.1c0-0.1,0-0.3,0-0.4c0-0.2,0-0.4,0-0.5V15.3c0-3-2.4-5.3-5.4-5.3H47.4c-2.9,0-5.3,2.4-5.3,5.3v225.3c0,2.9,2.4,5.3,5.3,5.3h123.9c0.2,0,0.4,0,0.5,0c0.1,0,0.3,0,0.4,0c0,0,0.1,0,0.1,0c0.1,0,0.3-0.1,0.5-0.1c0,0,0,0,0,0c0.1,0,0.3-0.1,0.4-0.2c0,0,0,0,0,0c0.1,0,0.3-0.1,0.4-0.2c0,0,0,0,0.1,0c0.1-0.1,0.2-0.1,0.3-0.2c0,0,0.1,0,0.1-0.1c0.1-0.1,0.2-0.1,0.3-0.2c0,0,0.1-0.1,0.1-0.1c0.1-0.1,0.2-0.2,0.3-0.3c0,0,0.1-0.1,0.1-0.1l37.4-37.4c0,0,0.1-0.1,0.1-0.1c0.1-0.1,0.2-0.2,0.3-0.3C212.8,206.6,212.8,206.6,212.8,206.5z M52.7,20.7h150.5v177.2h-32c-2.9,0-5.3,2.4-5.3,5.3v32H52.7V20.7z M195.7,208.6l-19.1,19.1v-19.1H195.7z"/><path fill="#000000" d="M104,131.5c-2.3-1.8-5.7-1.4-7.5,0.9l-13.8,17.7l-5.4-4.3c-2.3-1.8-5.7-1.4-7.5,0.9c-1.8,2.3-1.4,5.7,0.9,7.5l9.6,7.6c0.9,0.7,2.1,1.2,3.3,1.2c0.2,0,0.4,0,0.6,0c1.4-0.2,2.7-0.9,3.6-2l17.1-22C106.8,136.6,106.4,133.3,104,131.5z"/><path fill="#000000" d="M104,94.1c-2.3-1.8-5.7-1.4-7.5,0.9l-13.8,17.7l-5.4-4.3c-2.3-1.8-5.7-1.4-7.5,0.9c-1.8,2.3-1.4,5.7,0.9,7.5l9.6,7.6c0.9,0.7,2.1,1.2,3.3,1.2c0.2,0,0.4,0,0.6,0c1.4-0.2,2.7-0.9,3.6-2l17.1-22C106.8,99.3,106.4,95.9,104,94.1z"/><path fill="#000000" d="M104,56.7c-2.3-1.8-5.7-1.4-7.5,0.9L82.8,75.4l-5.4-4.3c-2.3-1.8-5.7-1.4-7.5,0.9c-1.8,2.3-1.4,5.7,0.9,7.5l9.6,7.6c0.9,0.7,2.1,1.2,3.3,1.2c0.2,0,0.4,0,0.6,0c1.4-0.2,2.7-0.9,3.6-2l17.1-22C106.8,61.9,106.4,58.5,104,56.7z"/><path fill="#000000" d="M116.8,77.3h59.8c2.9,0,5.3-2.4,5.3-5.3c0-3-2.4-5.3-5.3-5.3h-59.8c-2.9,0-5.3,2.4-5.3,5.3C111.4,74.9,113.8,77.3,116.8,77.3z"/><path fill="#000000" d="M116.8,114.6h59.8c2.9,0,5.3-2.4,5.3-5.3c0-2.9-2.4-5.3-5.3-5.3h-59.8c-2.9,0-5.3,2.4-5.3,5.3C111.4,112.2,113.8,114.6,116.8,114.6z"/><path fill="#000000" d="M176.6,152c2.9,0,5.3-2.4,5.3-5.3c0-2.9-2.4-5.3-5.3-5.3h-59.8c-2.9,0-5.3,2.4-5.3,5.3c0,2.9,2.4,5.3,5.3,5.3H176.6z"/></g><g></g><g></g><g></g><g></g><g></g><g></g><g></g><g></g><g></g><g></g><g></g><g></g><g></g><g></g><g></g></g></g>
</svg>